<svg version="1.1" xmlns="http://www.w3.org/2000/svg" xmlns:xlink="http://www.w3.org/1999/xlink" width="48" height="48"><defs><linearGradient x1="11.67152" y1="11.67152" x2="65.67341" y2="65.67341" gradientUnits="userSpaceOnUse" id="color-1"><stop offset="0.22" stop-color="#000000" stop-opacity="0.28"></stop><stop offset="1" stop-color="#000000" stop-opacity="0"></stop></linearGradient><filter id="dropshadow-base"><feColorMatrix type="matrix" values="0 0 0 0 0  0 0 0 0 0  0 0 0 0 0  0 0 0 .8 0"></feColorMatrix> <feOffset dx="0" dy="1"></feOffset> <feGaussianBlur stdDeviation="1"></feGaussianBlur> <feComposite in="SourceGraphic"></feComposite></filter><filter id="dropshadow-banner" x="-10%" y="-10%" width="120%" height="130%"><feColorMatrix type="matrix" values="0 0 0 0 0  0 0 0 0 0  0 0 0 0 0  0 0 0 .4 0"></feColorMatrix> <feOffset dx="0" dy="1"></feOffset> <feGaussianBlur stdDeviation="0.5"></feGaussianBlur> <feComposite in="SourceGraphic"></feComposite></filter></defs><g fill="none" fill-rule="nonzero" stroke="none" stroke-width="none" stroke-linecap="butt" stroke-linejoin="miter" stroke-miterlimit="10" stroke-dasharray="" stroke-dashoffset="0" font-family="none" font-weight="none" font-size="none" text-anchor="none" style="mix-blend-mode: normal"><path d="M2,24c0,-12.15026 9.84974,-22 22,-22c12.15026,0 22,9.84974 22,22c0,12.15026 -9.84974,22 -22,22c-12.15026,0 -22,-9.84974 -22,-22z" id="base 1 9" fill="#512da8" stroke-width="1"></path><path d="M17.33709,35.61254c-0.44661,-0.44661 -0.72185,-1.06552 -0.72185,-1.74976c0,-1.3623 1.09107,-2.4657 2.45337,-2.4657c0.07444,0 0.14811,0.00329 0.22087,0.00975l-1.96458,-1.96458c0,0 0,0 0,0c-0.44614,-0.44614 -0.72199,-1.06256 -0.72199,-1.74371c0,-0.4315 0.11096,-0.83217 0.30205,-1.1897l1.66434,-3.02048l-2.21049,-4.66386l-4.68729,-4.68729v-2.4657l4.02525,0l2.4657,2.4657h16.93317c0.3398,0 0.64864,0.13778 0.87221,0.36135l10.02602,10.02602c-0.25129,10.73908 -8.19796,19.57463 -18.53903,21.20571z" fill="url(#color-1)" stroke-width="1"></path><path d="M19.06861,31.39709c-1.3623,0 -2.45337,1.1034 -2.45337,2.4657c0,1.3623 1.09107,2.4657 2.45337,2.4657c1.3623,0 2.4657,-1.1034 2.4657,-2.4657c0,-1.3623 -1.1034,-2.4657 -2.4657,-2.4657zM11.67152,11.67152v2.4657h2.4657l4.43209,9.35115l-1.66434,3.02048c-0.19109,0.35753 -0.30205,0.7582 -0.30205,1.1897c0,1.3623 1.1034,2.4657 2.4657,2.4657h14.79418v-2.4657h-14.27022c-0.1726,0 -0.30821,-0.13561 -0.30821,-0.30821c0,-0.05548 0.01233,-0.10479 0.03699,-0.14794l1.1034,-2.00954h9.18472c0.92464,0 1.73215,-0.51163 2.15748,-1.26983l4.40743,-8.00118c0.09863,-0.1726 0.15411,-0.37602 0.15411,-0.59177c0,-0.68423 -0.55478,-1.23285 -1.23285,-1.23285h-18.22766l-1.17121,-2.4657zM31.39709,31.39709c-1.3623,0 -2.45337,1.1034 -2.45337,2.4657c0,1.3623 1.09107,2.4657 2.45337,2.4657c1.3623,0 2.4657,-1.1034 2.4657,-2.4657c0,-1.3623 -1.1034,-2.4657 -2.4657,-2.4657z" fill="none" stroke-width="0"></path><path d="M21.5343,33.86279c0,1.3623 -1.1034,2.4657 -2.4657,2.4657c-1.3623,0 -2.45337,-1.1034 -2.45337,-2.4657c0,-1.3623 1.09107,-2.4657 2.45337,-2.4657c1.3623,0 2.4657,1.1034 2.4657,2.4657zM15.69677,11.67152l1.17121,2.4657h18.22766c0.67807,0 1.23285,0.54862 1.23285,1.23285c0,0.21575 -0.05548,0.41917 -0.15411,0.59177l-4.40743,8.00118c-0.42533,0.7582 -1.23285,1.26983 -2.15748,1.26983h-9.18472l-1.1034,2.00954c-0.02466,0.04315 -0.03699,0.09246 -0.03699,0.14794c0,0.1726 0.13561,0.30821 0.30821,0.30821h14.27022v2.4657h-14.79418c-1.3623,0 -2.4657,-1.1034 -2.4657,-2.4657c0,-0.4315 0.11096,-0.83217 0.30205,-1.1897l1.66434,-3.02048l-4.43209,-9.35115h-2.4657v-2.4657zM33.86279,33.86279c0,1.3623 -1.1034,2.4657 -2.4657,2.4657c-1.3623,0 -2.45337,-1.1034 -2.45337,-2.4657c0,-1.3623 1.09107,-2.4657 2.45337,-2.4657c1.3623,0 2.4657,1.1034 2.4657,2.4657z" fill="#f57c00" stroke-width="0"></path><path d="M2,24c0,-12.15026 9.84974,-22 22,-22c12.15026,0 22,9.84974 22,22c0,12.15026 -9.84974,22 -22,22c-12.15026,0 -22,-9.84974 -22,-22z" id="base 1 5 1" fill="none" stroke-width="1"></path><path d="M2,24c0,-12.15026 9.84974,-22 22,-22c12.15026,0 22,9.84974 22,22c0,12.15026 -9.84974,22 -22,22c-12.15026,0 -22,-9.84974 -22,-22z" id="base 1 1 1" fill="none" stroke-width="1"></path><g fill="#000000" stroke-width="1" font-family="Roboto, sans-serif" font-weight="400" font-size="14" text-anchor="start"></g><rect x="2" y="2" width="44" height="22" fill="none" stroke-width="1"></rect><path d="M2,24v-22h44v22z" fill="none" stroke-width="1"></path><path d="M2,24v-22h44v22z" fill="none" stroke-width="1"></path><path d="M2,24v-22h44v22z" fill="none" stroke-width="1"></path><path d="M2,24v-22h44v22z" fill="none" stroke-width="1"></path><g fill="#000000" stroke-width="1" font-family="Roboto, sans-serif" font-weight="400" font-size="14" text-anchor="start"></g><rect x="2" y="2" width="44" height="22" fill="none" stroke-width="1"></rect><path d="M2,24v-22h44v22z" fill="none" stroke-width="1"></path><path d="M2,24v-22h44v22z" fill="none" stroke-width="1"></path><path d="M2,24v-22h44v22z" fill="none" stroke-width="1"></path><path d="M2,24v-22h44v22z" fill="none" stroke-width="1"></path></g></svg>